PathFileType	4	(X/Y/Z)	Patient4_TMGait_0pt2_03_right_09.trc.trc
DataRate	CameraRate	NumFrames	NumMarkers	Units	OrigDataRate	OrigDataStartFrame	OrigNumFrames
45.901639344262	45.901639344262	4	33	mm	45.901639344262	53	       141
Frame#	Time	Sacral			L.Shoulder			Chest			R.Shoulder			Neck			R.ASIS			L.ASIS			R.Thigh.Superior			R.Thigh.Lateral			R.Thigh.Inferior			R.Patella			L.Thigh.Superior			L.Thigh.Lateral			L.Thigh.Inferior			L.Patella			L.Shank.Superior			L.Shank.Lateral			L.Shank.Inferior			R.Shank.Superior			R.Shank.Lateral			R.Shank.Inferior			R.Heel			R.Midfoot.Superior			R.Midfoot.Lateral			R.Toe			L.Heel			L.Midfoot.Lateral			L.Midfoot.Superior			L.Toe			L.Elbow			L.Wrist			R.Elbow			R.Wrist			
		X1	Y1	Z1	X2	Y2	Z2	X3	Y3	Z3	X4	Y4	Z4	X5	Y5	Z5	X6	Y6	Z6	X7	Y7	Z7	X8	Y8	Z8	X9	Y9	Z9	X10	Y10	Z10	X11	Y11	Z11	X12	Y12	Z12	X13	Y13	Z13	X14	Y14	Z14	X15	Y15	Z15	X16	Y16	Z16	X17	Y17	Z17	X18	Y18	Z18	X19	Y19	Z19	X20	Y20	Z20	X21	Y21	Z21	X22	Y22	Z22	X23	Y23	Z23	X24	Y24	Z24	X25	Y25	Z25	X26	Y26	Z26	X27	Y27	Z27	X28	Y28	Z28	X29	Y29	Z29	X30	Y30	Z30	X31	Y31	Z31	X32	Y32	Z32	X33	Y33	Z33	

53	20.292857142857	745.920694123944	988.684218749004	615.059347788792	899.801939446535	1412.702061600889	404.344449282405	1020.211292038042	1348.767487340334	553.083171708316	960.918808571492	1424.950452414142	735.222284203782	896.664144117069	1479.946623833268	560.959040615132	991.378461558991	925.757034576928	698.231207242019	937.536133390863	952.633149372930	430.455477706930	1037.498946989194	728.843291927585	641.596849116071	976.063952454845	609.081473790413	704.476627351432	1037.030774281044	567.490633025672	606.124804640640	1041.781964688621	472.574996073372	605.366246956986	1031.671571391102	777.490528695366	443.270353430824	981.308852070964	646.024585186129	353.962565631452	1097.677562030734	593.107632839560	409.036538471150	1115.004348204588	506.778917841092	391.366865661158	1053.165850275961	437.250595283401	376.937219948049	915.577731001502	386.880674457139	325.592019722151	918.296629849097	251.262433003872	363.775701738548	996.797831083679	383.977798127554	614.238787324287	922.683191663126	289.136675618312	687.535241641535	929.158671076086	194.439230670060	615.246343805065	766.372010227520	43.615688377131	610.813471437679	941.777231858905	95.658852683733	617.677251029316	860.289414581858	36.956045289452	670.483450729239	1064.665590859602	42.441227885988	627.150791768138	738.552529398995	164.371732671640	396.906178073943	796.447862808064	132.135832443341	311.349990730504	900.392862372647	148.887475543033	330.780171234814	987.105364681325	48.451586632926	289.813939507572	816.059809232361	1060.477520444677	315.537457938499	809.923268880270	800.141272406865	318.115265032062	1028.720806480824	1088.446850702477	875.505966350097	1247.867416177324	949.738929287107	858.493294221737	
54	20.314642857143	745.266413079040	988.362081571544	618.302363200947	895.382960507065	1412.951374741257	406.249375007445	1018.434153596774	1348.570235182714	552.663693615943	962.387536796904	1424.333948570594	735.947244360013	895.376197262054	1479.715424328087	562.838632515677	991.695215946173	925.506805889919	698.067701836839	934.643958703781	952.526706697927	430.969803904619	1036.474116514973	728.109851519759	641.317030894772	975.277203571423	608.487737270340	704.772150810168	1035.028925440298	566.785035428038	605.749271456523	1039.350469180618	471.842319315858	604.872237315119	1029.813912815074	778.904472497116	444.428777561270	980.788239668039	646.593908749238	355.696056061173	1097.455990856899	595.200962214238	410.792907780556	1116.615475721307	510.113134962406	393.197999474185	1057.976999180665	439.356169875073	378.125435735371	923.444224061206	382.273186406353	327.290595713501	934.056184502508	247.009817030139	364.232751243305	993.974851626808	383.320367156806	613.995084188131	919.937232144655	288.657148882153	687.777070060977	925.406810337135	194.110096281421	615.245181639640	762.010003039890	43.641436693434	610.967181873861	937.438449366758	95.588976858856	617.742514190127	855.923516693157	36.913889592914	670.607595919318	1060.292926487092	42.298310920959	627.111290198229	760.483980089897	150.149151667768	398.365040735820	819.100621318389	122.294567441866	311.735973943399	921.825902529782	144.302752099755	330.337643922087	1013.254656787646	49.596448983904	287.213776572741	798.173980649510	1064.870844415581	318.912630603245	778.675688138704	805.126777078941	325.259136975564	1045.905895478435	1090.773602554239	873.046859248887	1275.270079408654	971.109858428936	849.214237759707	
55	20.336428571429	744.845617746454	988.752055857914	621.263709055076	891.150475358441	1413.976395234047	408.119408189617	1016.865894461766	1348.989870483439	552.034263688927	964.184734113250	1424.306076691142	736.419954176442	894.289279414549	1480.066310560768	564.670990236154	992.060882964461	925.715512553063	697.496619994974	931.830834142871	953.009019406427	431.099367323205	1034.867043248299	727.606734327270	640.885034752734	973.618370837785	608.380432467563	705.140602564052	1032.018492036666	566.307611209875	605.516992986580	1035.722796318051	471.504652864604	604.652227197127	1027.166021527535	780.162351853616	444.856361795471	978.626569604752	647.189920848457	356.860206902758	1095.396467801275	596.888226129813	411.756003146093	1116.202073963813	513.357544537316	394.359108839137	1061.306644184540	441.503510010919	378.740294535670	930.808551574158	376.772497277126	328.051241619545	950.264457388252	242.337953845660	363.920468855594	990.217708276158	383.086580435756	613.990515433763	916.483841329739	288.412713737182	688.186353093973	921.284011703791	194.033203634652	615.376401034126	757.617173559167	43.684761919671	611.134732316817	933.089190125261	95.535420589938	617.850242489330	851.548870082263	36.872131093945	670.740391271569	1055.904084358055	42.168158156309	627.069341462820	783.920293393853	134.891465907699	398.699505768901	843.538638866863	111.195369298945	311.377054244418	944.751750679867	138.969169324516	329.297367889865	1041.258114293381	50.386538942487	284.896632831173	781.064760970810	1070.592226516354	322.101766946391	750.938411877050	812.054833875106	332.547074891224	1062.808755505518	1094.506695559891	870.152783192595	1300.452846799752	994.788187340857	839.142221613776	
56	20.358214285714	744.627292970636	989.772799026814	623.889212744434	887.161922090387	1415.688760202467	409.929465300366	1015.515851283578	1349.951711603209	551.221422569788	966.258472153513	1424.813006562423	736.644235150177	893.409889370076	1480.933629476658	566.442134296963	992.439661538452	926.325200714413	696.561284837786	929.118144305177	954.027434087470	430.875315266199	1032.730636015609	727.332098817445	640.326993624054	971.159467918266	608.722528074824	705.575738594561	1028.118160327079	566.052005985770	605.438574847252	1031.043513100602	471.537797225468	604.706852832927	1023.872354190993	781.260553064340	444.624785871468	975.102225775302	647.807988596938	357.437062223346	1091.812460699499	598.198795620154	411.978385627835	1114.051327490359	516.480916336583	394.886825798404	1063.311584707823	443.710910709128	378.810159118951	937.766942520732	370.805447185722	327.836625418613	966.585350799817	237.738997523499	362.873814127379	985.638920469857	383.245775257529	614.216778949437	912.392119891533	288.401265648597	688.747166722224	916.836247166682	194.193777560506	615.626499312749	753.199287040870	43.751813189362	611.310457790476	928.733842959852	95.497574793819	617.993204856052	847.167790481742	36.834309670262	670.874251984858	1051.503485690802	42.047172684810	627.026506324725	808.262197370380	119.768195724202	397.911120465052	869.096496839645	99.748841171975	310.304566118584	968.576611171899	133.415166985432	327.708053007037	1070.175502253688	50.917350882985	282.979060702557	765.007922860132	1077.368780707613	325.183032528871	726.737131230018	820.277900497233	339.908189133357	1079.254690811750	1099.508859042986	866.867571104798	1323.102075202541	1020.418252237852	828.425752053873	
